<svg width="125" height="44" viewBox="0 0 125 44" fill="none" xmlns="http://www.w3.org/2000/svg">
<rect width="125" height="44" rx="22" fill="black"/>
<path d="M32.25 17.6L26.75 14.42C26.5223 14.2874 26.2635 14.2175 26 14.2175C25.7365 14.2175 25.4777 14.2874 25.25 14.42L19.75 17.6C19.29 17.87 19 18.36 19 18.9V25.25C19 25.79 19.29 26.28 19.75 26.55L25.25 29.73C25.71 30 26.29 30 26.75 29.73L32.25 26.55C32.71 26.28 33 25.79 33 25.25V18.9C33 18.36 32.71 17.87 32.25 17.6V17.6ZM21 24.96V20.34L25 22.66V27.27L21 24.96V24.96ZM26 20.93L22 18.61L26 16.3L30 18.61L26 20.93ZM27 27.27V22.66L31 20.34V24.96L27 27.27ZM21 12H17.5C16.67 12 16 12.67 16 13.5V17H18V14H21V12ZM31 12H34.5C35.33 12 36 12.67 36 13.5V17H34V14H31V12ZM21 32H17.5C16.67 32 16 31.33 16 30.5V27H18V30H21V32ZM31 32H34.5C35.33 32 36 31.33 36 30.5V27H34V30H31V32Z" fill="white"/>
<path d="M47.0227 17.9091H44.7386V15.7614H51.4432V17.9091H49.1705V30H47.0227V17.9091ZM56.5625 15.7614C57.7595 15.7614 58.6383 16.0909 59.1989 16.75C59.6913 17.3258 59.9375 18.1288 59.9375 19.1591V21.2273C59.9375 22.2348 59.5549 23.0871 58.7898 23.7841L60.3807 30H58.0625L56.7557 24.625C56.6951 24.6326 56.6307 24.6364 56.5625 24.6364H55.3239V30H53.1761V15.7614H56.5625ZM57.8466 19.1932C57.8466 18.3674 57.4375 17.9545 56.6193 17.9545H55.3239V22.5114H56.6193C56.9602 22.5114 57.2481 22.3902 57.483 22.1477C57.7254 21.9053 57.8466 21.6136 57.8466 21.2727V19.1932ZM63.7855 24.0341L60.9105 15.75H63.2741L64.8651 20.8636L66.4446 15.75H68.8196L65.9332 24.0341V30H63.7855V24.0341ZM75.1832 15.5795C76.1302 15.5795 76.9332 15.9129 77.5923 16.5795C78.259 17.2462 78.5923 18.0492 78.5923 18.9886V26.7614C78.5923 27.7083 78.259 28.5152 77.5923 29.1818C76.9257 29.8409 76.1226 30.1705 75.1832 30.1705C74.2363 30.1705 73.4332 29.8371 72.7741 29.1705C72.1151 28.5038 71.7855 27.7008 71.7855 26.7614V18.9886C71.7855 18.0417 72.1188 17.2386 72.7855 16.5795C73.4522 15.9129 74.2514 15.5795 75.1832 15.5795ZM76.3537 18.9432C76.3537 18.6023 76.2325 18.3144 75.9901 18.0795C75.7552 17.8371 75.4673 17.7159 75.1264 17.7159C74.7855 17.7159 74.4938 17.8371 74.2514 18.0795C74.009 18.3144 73.8878 18.6023 73.8878 18.9432V26.7386C73.8878 27.0795 74.009 27.3712 74.2514 27.6136C74.4938 27.8485 74.7855 27.9659 75.1264 27.9659C75.4673 27.9659 75.7552 27.8485 75.9901 27.6136C76.2325 27.3712 76.3537 27.0795 76.3537 26.7386V18.9432ZM82.8935 15.75L85.7344 25.3182V15.75H87.8821V30H85.5753L82.6207 20.875V30H80.473V15.75H82.8935ZM93.6094 26.7273L93.0866 30H90.848L93.2685 15.7614H96.223L98.6094 30H96.3594L95.848 26.7273H93.6094ZM94.7344 19.0227L93.9389 24.6364H95.5298L94.7344 19.0227ZM103.797 15.7614C104.994 15.7614 105.873 16.0909 106.433 16.75C106.926 17.3258 107.172 18.1288 107.172 19.1591V21.2273C107.172 22.2348 106.789 23.0871 106.024 23.7841L107.615 30H105.297L103.99 24.625C103.929 24.6326 103.865 24.6364 103.797 24.6364H102.558V30H100.411V15.7614H103.797ZM105.081 19.1932C105.081 18.3674 104.672 17.9545 103.854 17.9545H102.558V22.5114H103.854C104.195 22.5114 104.482 22.3902 104.717 22.1477C104.96 21.9053 105.081 21.6136 105.081 21.2727V19.1932Z" fill="white"/>
</svg>
