<svg width="120" height="46" viewBox="0 0 120 46" fill="none" xmlns="http://www.w3.org/2000/svg">
<path d="M17.2794 0.517206H20V45.5141H16.7647L2.72059 5.39372V45.4402H0V0.517206H3.82353L17.2794 38.4949V0.517206ZM42.5735 11.5263V34.505C42.5735 41.0809 39.5588 45.8836 32.6471 45.8836C25.8824 45.8836 22.8676 41.0809 22.8676 34.505V11.5263C22.8676 4.9504 25.8824 0.147773 32.6471 0.147773C39.5588 0.147773 42.5735 4.9504 42.5735 11.5263ZM39.6324 11.3046C39.6324 6.42813 37.6471 2.80769 32.6471 2.80769C27.7206 2.80769 25.8088 6.42813 25.8088 11.3046V34.6528C25.8088 39.5293 27.7206 43.1498 32.6471 43.1498C37.6471 43.1498 39.6324 39.5293 39.6324 34.6528V11.3046ZM80.8088 6.13258L80 11.0091V11.1569H85.4412V45.4402H92.5V0.517206H87.7941C86.7647 3.39878 85.5882 5.91092 80.8088 6.13258ZM120 26.4514V34.6528C120 41.8198 116.25 45.9574 109.338 45.9574C102.426 45.9574 98.6765 41.8198 98.6765 34.6528V11.6741C98.6765 4.06376 102.132 0 109.412 0C116.324 0 119.926 4.13765 119.926 11.3046V12.4868H113.309V10.8613C113.309 7.6842 111.912 6.42813 109.632 6.42813C107.132 6.42813 105.735 7.6842 105.735 11.9696V20.171C106.985 17.585 109.118 16.1812 112.279 16.1812C117.353 16.1812 120 19.8755 120 26.4514ZM112.941 27.0425C112.941 23.8654 111.544 22.6093 109.265 22.6093C107.059 22.6093 105.588 23.8654 105.588 27.0425V35.17C105.588 38.3471 106.985 39.5293 109.265 39.5293C111.471 39.5293 112.941 38.3471 112.941 35.17V27.0425ZM29.4118 11.9696C28.4559 11.9696 27.6471 12.7824 27.6471 13.7429C27.6471 14.7034 28.4559 15.5162 29.4118 15.5162C30.3676 15.5162 31.1765 14.7034 31.1765 13.7429C31.1765 12.7085 30.3676 11.9696 29.4118 11.9696ZM31.1765 9.53137C31.1765 10.4919 30.3676 11.3046 29.4118 11.3046C28.4559 11.3046 27.6471 10.4919 27.6471 9.53137C27.6471 8.57084 28.4559 7.75809 29.4118 7.75809C30.3676 7.75809 31.1765 8.57084 31.1765 9.53137ZM30.5147 8.71861C30.5147 8.49695 30.3676 8.34918 30.1471 8.34918C29.9265 8.34918 29.7794 8.49695 29.7794 8.71861C29.7794 8.94027 29.9265 9.08805 30.1471 9.08805C30.2941 9.08805 30.5147 8.94027 30.5147 8.71861ZM70.4412 41.3765L64.1912 0.738866H61.0294L54.4853 41.5242L47.7941 0.517206H44.9265L52.1324 45.5141H56.25L62.5 8.64473L68.5294 45.4402H72.3529L79.4853 0.443319H76.8382L70.4412 41.3765Z" fill="black"/>
</svg>
